<?xml version="1.0" encoding="utf-8"?>
<svg xmlns="http://www.w3.org/2000/svg" xmlns:svg="http://www.w3.org/2000/svg" version="1.1" viewBox="0 0 1400 590">
	<title>The titlepage for the Standard Ebooks edition of File No. 113, by Émile Gaboriau. Translated by James R. Osgood &amp; Co.</title>
	<g aria-label="FILE NO. 113">
		<path d="M 437.01827,52.807016 H 392.38669 V 130 h 17.59064 V 99.029239 h 24.98246 V 83.590642 H 409.97733 V 68.245613 h 27.04094 z"/>
		<path d="M 467.97441,52.807016 H 450.38377 V 130 h 17.59064 z"/>
		<path d="M 501.84868,52.807016 H 484.25804 V 130 h 44.16374 v -15.4386 h -26.5731 z"/>
		<path d="M 586.2361,52.807016 H 542.07236 V 130 H 586.2361 V 114.5614 H 559.663 V 99.029239 h 25.4503 V 83.590642 H 559.663 V 68.245613 h 26.5731 z"/>
		<path d="m 649.52412,82.093566 h 0.18713 L 680.40131,130 h 17.59065 V 52.807016 h -17.59065 v 47.906434 h -0.18713 L 649.52412,52.807016 H 631.93347 V 130 h 17.59065 z"/>
		<path d="m 710.77413,91.356724 c 0,22.549706 16.09357,40.046786 38.92398,40.046786 22.17544,0 38.83041,-17.49708 38.83041,-40.046786 0,-22.549708 -17.40351,-39.953217 -38.83041,-39.953217 -21.23977,0 -38.92398,17.403509 -38.92398,39.953217 z m 18.99415,0 c 0,-11.508772 6.36257,-23.017544 19.92983,-23.017544 13.66082,0 19.83625,11.508772 19.83625,23.017544 0,11.508776 -5.80117,23.017546 -19.83625,23.017546 -14.40936,0 -19.92983,-11.50877 -19.92983,-23.017546 z"/>
		<path d="m 811.95686,109.97661 c -5.89474,0 -10.66667,4.77193 -10.66667,10.76023 0,5.89474 4.77193,10.66667 10.66667,10.66667 5.98831,0 10.76024,-4.77193 10.76024,-10.66667 0,-5.9883 -4.77193,-10.76023 -10.76024,-10.76023 z"/>
		<path d="m 866.68639,84.432748 12.72515,-8.233919 V 130 h 17.59064 V 52.807016 h -8.32748 l -21.98831,14.222223 z"/>
		<path d="m 910.24636,84.432748 12.72515,-8.233919 V 130 h 17.59064 V 52.807016 h -8.32749 l -21.9883,14.222223 z"/>
		<path d="m 970.27413,75.076022 c 0,0 1.77778,-9.543859 11.50878,-9.543859 4.95906,0 9.54386,3.555555 9.54386,8.51462 0,5.614035 -4.5848,9.730994 -9.26316,9.730994 h -3.83626 v 11.508772 c 0,0 1.49708,-0.561403 3.36842,-0.561403 6.17544,0 11.1345,4.678362 11.1345,11.321634 0,6.54971 -4.67836,10.19883 -11.1345,10.19883 -11.60234,0 -12.63158,-11.78947 -12.63158,-11.78947 l -16.2807,7.95322 c 0,0 5.23977,18.99415 29.00585,18.99415 16.5614,0 28.63156,-10.5731 28.63156,-25.35673 0,-8.140348 -3.8362,-14.035085 -9.8245,-17.684208 4.2105,-3.274853 6.8304,-8.140351 6.8304,-14.502924 0,-13.099415 -10.6667,-22.456141 -25.35676,-22.456141 -21.61404,0 -25.54386,16.935673 -25.54386,16.935673 z"/>
	</g>
	<g aria-label="ÉMILE GABORIAU">
		<path d="m 365.21985,221.50877 3.92982,5.40351 16.70176,-9.68421 -6.38597,-8.07017 z m 25.26316,10.59649 H 357.3602 V 290 h 33.12281 v -11.57895 h -19.92983 v -11.64912 h 19.08772 v -11.57895 h -19.08772 v -11.50877 h 19.92983 z"/>
		<path d="m 450.92709,290 h 13.19298 l -5.19298,-57.89474 H 444.892 l -12.84211,33.40351 -12.8421,-33.40351 H 405.1727 L 399.97972,290 h 13.19298 l 2.73684,-34.31579 h 0.35088 l 11.85965,33.96491 h 7.85965 l 11.85965,-33.96491 h 0.35087 z"/>
		<path d="M 487.59814,232.10526 H 474.40515 V 290 h 13.19299 z"/>
		<path d="M 514.25384,232.10526 H 501.06085 V 290 h 33.12281 v -11.57895 h -19.92982 z"/>
		<path d="M 578.79441,232.10526 H 545.6716 V 290 h 33.12281 v -11.57895 h -19.92983 v -11.64912 h 19.08772 v -11.57895 h -19.08772 v -11.50877 h 19.92983 z"/>
		<path d="m 667.91832,257.57895 h -26.73684 v 10.17544 h 13.33333 c 0,7.08772 -6.24561,11.15789 -12.5614,11.15789 -8.14035,0 -14.73684,-8 -14.73684,-17.82456 0,-10.03509 6.59649,-18.10526 14.73684,-18.10526 5.12281,0 9.54386,2.03508 12.91228,7.43859 l 8.63158,-9.47368 c -5.05263,-6.10526 -12.14035,-9.89474 -22.31579,-9.89474 -16.2807,0 -28.21053,13.40351 -28.21053,30.03509 0,16.5614 12.63158,29.96491 28.21053,29.96491 11.36842,0 23.57895,-6.24561 26.73684,-20.91228 z"/>
		<path d="M 708.08497,232.10526 H 695.87444 L 672.50602,290 h 14.17544 l 4.2807,-11.57895 h 22.03509 L 717.27795,290 h 14.17544 z m 0.42105,34.73685 H 695.45339 L 701.90953,250 h 0.14035 z"/>
		<path d="M 738.6431,232.10526 V 290 h 21.96491 c 12,0 18.94737,-6.59649 18.94737,-16.14035 0,-9.33333 -5.12281,-13.33333 -12.35088,-14.59649 4.91228,-2.52632 7.22807,-7.08772 7.22807,-12.42105 0,-11.01755 -7.85965,-14.73685 -17.82456,-14.73685 z m 13.19298,22.66667 V 242.2807 h 1.05263 c 5.75439,0 8.77193,1.75439 8.77193,5.89474 0,4.8421 -3.08772,6.59649 -8.77193,6.59649 z m 0,25.05263 v -13.68421 h 4.14035 c 6.24562,0 9.68421,1.89474 9.68421,7.22807 0,4.5614 -3.43859,6.45614 -9.68421,6.45614 z"/>
		<path d="m 787.78452,261.01754 c 0,16.91228 12.07018,30.03509 29.19298,30.03509 16.63158,0 29.12281,-13.12281 29.12281,-30.03509 0,-16.91228 -13.05263,-29.96491 -29.12281,-29.96491 -15.92982,0 -29.19298,13.05263 -29.19298,29.96491 z m 14.24562,0 c 0,-8.63157 4.77193,-17.26315 14.94736,-17.26315 10.24562,0 14.8772,8.63158 14.8772,17.26315 0,8.63158 -4.35088,17.26316 -14.8772,17.26316 -10.80701,0 -14.94736,-8.63158 -14.94736,-17.26316 z"/>
		<path d="M 856.9216,232.10526 V 290 h 13.19298 V 267.12281 L 887.79879,290 h 16.77193 L 884.6409,266.07018 c 7.08772,-2.24562 11.85965,-8.07018 11.85965,-16.77193 0,-11.36842 -8.14035,-17.19299 -18.87719,-17.19299 z m 13.19298,25.68421 v -15.15789 h 1.54386 c 4.98246,0 10.94737,0.35088 10.94737,7.57895 0,7.22807 -5.96491,7.57894 -10.94737,7.57894 z"/>
		<path d="M 925.4161,232.10526 H 912.22312 V 290 h 13.19298 z"/>
		<path d="M 968.28232,232.10526 H 956.0718 L 932.70338,290 h 14.17544 l 4.2807,-11.57895 h 22.03509 L 977.47531,290 h 14.17544 z m 0.42106,34.73685 H 955.65075 L 962.10689,250 h 0.14035 z"/>
		<path d="m 1043.3317,232.10526 h -13.193 v 33.47369 c 0,9.68421 -2.9474,12.49123 -9.4035,12.49123 -6.4562,0 -9.4035,-2.80702 -9.4035,-12.49123 v -33.47369 h -13.19303 v 37.33334 c 0,14.31579 7.85963,21.61403 22.59653,21.61403 14.7368,0 22.5965,-7.29824 22.5965,-21.61403 z"/>
	</g>
	<g aria-label="translated by">
		<path d="m 594.75525,463.42189 c 0,1.19023 2.50797,0.25505 2.50797,1.14772 0,1.14771 -1.78533,8.034 -1.78533,11.94474 0,3.31562 1.57279,3.99575 2.72051,3.99575 2.63549,0 6.24867,-2.89055 6.24867,-3.99575 0,-0.59512 -0.34007,-0.59512 -0.46759,-0.59512 -0.68013,0 -1.65781,1.87036 -3.99575,1.87036 -0.17003,0 -1.74283,-0.085 -1.74283,-2.33794 0,-0.68013 0.97769,-6.20617 1.36026,-8.84166 0.25505,-1.74283 0.12752,-2.50797 1.36025,-2.50797 0.93518,0 2.76302,0.21254 3.44315,0.21254 0.76514,0 1.02019,-0.25505 1.02019,-1.23273 0,-0.5101 -0.21254,-0.80765 -1.10521,-0.80765 -0.46758,0 -0.80765,0.0425 -2.46546,0.0425 -1.40276,0 -1.48778,-0.0425 -1.48778,-0.29755 0,-0.63762 0.76515,-2.63549 0.76515,-3.1881 0,-0.38257 -0.21254,-0.51009 -0.42508,-0.51009 -0.68013,0 -0.76515,0.5526 -2.46547,2.33793 -1.87035,1.95537 -3.48565,1.91286 -3.48565,2.76302 z"/>
		<path d="m 606.86272,467.41764 c 0,0.59511 0.34006,0.72264 0.51009,0.72264 0.21254,0 0.34006,-0.12753 0.46759,-0.25505 0.25505,-0.29756 0.59511,-2.84804 2.33794,-2.84804 0.76514,0 1.44527,0.76515 1.44527,2.89055 0,3.18809 -1.82784,9.43677 -1.82784,11.13708 0,1.0202 0.85015,1.10521 1.27523,1.10521 h 0.21254 c 1.53029,0 1.44528,0 2.38045,-7.22635 l 0.21254,-1.40277 c 0.21254,-1.78533 1.27524,-7.35387 3.1881,-7.35387 1.53028,0 1.36025,1.78533 2.29543,1.78533 0.76514,0 0.85016,-1.31775 0.93517,-1.6153 0.12753,-0.46759 0.46759,-1.02019 0.46759,-1.5728 0,-0.59511 -0.46759,-1.31774 -1.57279,-1.31774 -3.14559,0 -5.27099,4.37832 -5.56855,4.37832 -0.085,0 -0.12752,-0.0425 -1.19022,-2.80553 -0.25505,-0.68013 -0.68013,-1.48778 -1.5728,-1.48778 -0.38257,0 -3.99574,1.02019 -3.99574,5.8661 z"/>
		<path d="m 620.45398,475.15409 c 0,2.76302 0.51009,5.48353 4.54835,5.48353 4.03826,0 7.56642,-5.10096 7.77896,-5.10096 0.29755,0 -0.085,4.7609 2.63549,4.7609 1.14772,0 3.06057,-1.95537 4.12327,-3.48566 0.55261,-0.76514 0.76515,-1.40276 0.76515,-1.82784 0,-0.17003 -0.0425,-0.46759 -0.38257,-0.46759 -0.80766,0 -1.70032,2.76302 -3.10309,2.76302 -0.80765,0 -1.44527,-1.40276 -1.44527,-2.50797 0,-1.6153 0.42508,-3.57067 0.76515,-5.44102 0.34006,-1.91286 0.59511,-3.86823 0.97768,-5.44102 0.29756,-1.23273 0.85016,-2.25292 0.85016,-2.93305 0,-0.46759 -0.21254,-0.63762 -0.46759,-0.63762 -0.85016,0 -1.36025,2.08289 -2.21041,2.08289 -1.40277,0 -2.29543,-0.46759 -3.61318,-0.46759 -1.10521,0 -1.95537,0.21254 -3.10308,0.76515 -2.25292,1.0627 -4.20829,3.10308 -5.73858,5.52603 -1.31775,2.1254 -2.38044,4.54836 -2.38044,6.9288 z m 2.97555,-0.25505 c 0,-0.76514 0.085,-1.53028 0.21254,-2.29543 0.38258,-2.21041 1.40277,-4.12327 2.6355,-6.16365 1.27524,-2.16791 3.52816,-3.44315 5.27099,-3.44315 0.89266,0 2.80552,0.29756 2.80552,1.48778 0,0.12753 -1.14771,7.94899 -2.1679,9.98937 -0.38258,0.76515 -2.38045,3.82572 -5.44102,3.82572 -1.78534,0 -3.31563,-1.27524 -3.31563,-3.40064 z"/>
		<path d="m 641.69999,466.35494 c 0,0.46759 0.085,0.80765 0.38257,0.80765 0.93518,0 1.40277,-2.38044 2.72051,-2.38044 0.42508,0 0.97769,0.85016 0.97769,2.33794 0,3.27311 -1.87036,9.86184 -1.87036,11.64718 0,1.23273 0.34007,1.31775 1.48778,1.31775 1.10521,0 1.44527,-0.17004 1.5728,-1.10521 0.085,-0.59511 -0.21254,-0.085 0.85016,-5.82359 1.02019,-5.48353 0.51009,-5.10096 2.33794,-7.69395 0.97768,-1.40276 1.78533,-1.87035 2.76301,-1.87035 2.76302,0 2.97556,2.80553 2.97556,3.48566 0,1.57279 -0.89267,7.26886 -0.89267,10.49947 0,1.48777 0.72264,2.678 1.5728,2.678 1.87035,0 5.61105,-2.97556 5.61105,-4.63337 0,-0.25505 -0.085,-0.5101 -0.38257,-0.5101 -0.63762,0 -0.80765,0.5101 -1.31775,1.14772 0,0 -0.97768,0.93517 -1.70032,0.93517 -0.46758,0 -0.80765,-0.34006 -0.80765,-1.53028 0,-1.44527 0.72264,-5.95112 0.72264,-8.92668 0,-2.678 -0.59511,-5.31349 -3.57067,-5.31349 -1.78534,0 -4.03826,1.53028 -5.18597,2.42295 -1.5728,1.19022 -1.87035,2.1254 -2.1254,2.1254 -0.38257,0 0.51009,-4.46334 -1.95537,-4.46334 -1.6153,0 -4.16578,3.1881 -4.16578,4.84591 z"/>
		<path d="m 663.65071,477.70457 c 0,2.25292 3.06057,2.80553 4.71838,2.80553 5.44102,0 6.63125,-4.03826 6.63125,-5.56855 0,-2.84803 -1.61531,-4.03826 -2.93305,-5.52603 -1.02019,-1.10521 -3.35813,-2.84804 -3.35813,-4.46334 0,-1.27524 0.63762,-2.25292 2.25292,-2.25292 1.65781,0 1.82784,2.38044 3.35813,2.38044 0.21254,0 1.6153,-0.12752 1.6153,-1.44527 0,-1.65781 -1.65781,-2.21041 -3.95324,-2.21041 -3.31562,0 -5.78108,1.95536 -5.78108,4.8034 0,2.55048 1.6153,3.65568 3.31562,5.39851 1.53029,1.53029 2.93305,2.76302 2.93305,4.76089 0,0.5101 -0.29756,2.72051 -3.40064,2.72051 -2.59299,0 -1.87035,-2.93305 -4.03826,-2.93305 -0.51009,0 -1.36025,0.21254 -1.36025,1.53029 z"/>
		<path d="m 678.75033,476.34431 c 0,3.99575 1.23273,3.99575 2.08289,3.99575 0.80765,0 2.59299,-0.85016 3.6982,-2.12539 1.02019,-1.19023 2.12539,-2.6355 2.12539,-3.06058 0,-0.42508 -0.21254,-0.68013 -0.51009,-0.68013 -1.10521,0 -1.53029,3.01807 -3.86823,3.01807 -0.5526,0 -0.68012,-0.21254 -0.68012,-1.65781 0,-1.44527 0.51009,-4.12327 1.23273,-9.13921 1.36025,-9.13922 0.63762,-7.56642 2.21041,-15.81297 0.12752,-0.80765 0.42508,-1.36025 0.42508,-1.95537 0,-0.42507 -0.21254,-0.68012 -0.89267,-0.68012 -1.1052,0 -2.04038,0.42508 -5.14346,0.63762 -0.5526,0.0425 -0.63762,0.38257 -0.63762,0.59511 0,0.46759 0.38257,0.59511 1.23273,0.59511 0.5101,0 0.59511,-0.0425 1.23273,-0.0425 0.63762,0 1.0627,0.34007 1.0627,0.85016 0,0.5101 -0.63762,4.33581 -1.36025,8.92667 -0.42508,2.72051 -0.63762,5.73858 -1.0202,8.41658 -0.085,0.68013 -1.19022,5.69607 -1.19022,8.11902 z"/>
		<path d="m 689.28036,475.15409 c 0,2.76302 0.51009,5.48353 4.54835,5.48353 4.03826,0 7.56642,-5.10096 7.77896,-5.10096 0.29755,0 -0.085,4.7609 2.63549,4.7609 1.14772,0 3.06058,-1.95537 4.12328,-3.48566 0.5526,-0.76514 0.76514,-1.40276 0.76514,-1.82784 0,-0.17003 -0.0425,-0.46759 -0.38257,-0.46759 -0.80765,0 -1.70032,2.76302 -3.10308,2.76302 -0.80766,0 -1.44528,-1.40276 -1.44528,-2.50797 0,-1.6153 0.42508,-3.57067 0.76515,-5.44102 0.34006,-1.91286 0.59511,-3.86823 0.97768,-5.44102 0.29756,-1.23273 0.85016,-2.25292 0.85016,-2.93305 0,-0.46759 -0.21254,-0.63762 -0.46759,-0.63762 -0.85016,0 -1.36025,2.08289 -2.21041,2.08289 -1.40276,0 -2.29543,-0.46759 -3.61318,-0.46759 -1.10521,0 -1.95537,0.21254 -3.10308,0.76515 -2.25292,1.0627 -4.20829,3.10308 -5.73858,5.52603 -1.31774,2.1254 -2.38044,4.54836 -2.38044,6.9288 z m 2.97556,-0.25505 c 0,-0.76514 0.085,-1.53028 0.21253,-2.29543 0.38258,-2.21041 1.40277,-4.12327 2.6355,-6.16365 1.27524,-2.16791 3.52816,-3.44315 5.27099,-3.44315 0.89266,0 2.80552,0.29756 2.80552,1.48778 0,0.12753 -1.14771,7.94899 -2.1679,9.98937 -0.38257,0.76515 -2.38045,3.82572 -5.44102,3.82572 -1.78534,0 -3.31562,-1.27524 -3.31562,-3.40064 z"/>
		<path d="m 711.15402,463.42189 c 0,1.19023 2.50797,0.25505 2.50797,1.14772 0,1.14771 -1.78533,8.034 -1.78533,11.94474 0,3.31562 1.57279,3.99575 2.72051,3.99575 2.63549,0 6.24867,-2.89055 6.24867,-3.99575 0,-0.59512 -0.34006,-0.59512 -0.46759,-0.59512 -0.68012,0 -1.65781,1.87036 -3.99575,1.87036 -0.17003,0 -1.74282,-0.085 -1.74282,-2.33794 0,-0.68013 0.97768,-6.20617 1.36025,-8.84166 0.25505,-1.74283 0.12753,-2.50797 1.36026,-2.50797 0.93517,0 2.76302,0.21254 3.44314,0.21254 0.76515,0 1.02019,-0.25505 1.02019,-1.23273 0,-0.5101 -0.21254,-0.80765 -1.1052,-0.80765 -0.46759,0 -0.80765,0.0425 -2.46547,0.0425 -1.40276,0 -1.48777,-0.0425 -1.48777,-0.29755 0,-0.63762 0.76514,-2.63549 0.76514,-3.1881 0,-0.38257 -0.21254,-0.51009 -0.42508,-0.51009 -0.68013,0 -0.76514,0.5526 -2.46546,2.33793 -1.87035,1.95537 -3.48566,1.91286 -3.48566,2.76302 z"/>
		<path d="m 723.40296,473.75133 c 0,3.78321 1.31775,6.75877 6.71626,6.75877 3.69819,0 7.39639,-2.97556 7.39639,-3.95325 0,-0.25504 -0.17003,-0.42508 -0.5101,-0.42508 -0.46759,0 -2.1679,1.82785 -4.59086,1.82785 -4.20829,0 -6.12115,-2.1254 -6.12115,-5.3135 0,-1.10521 0.12753,-1.74283 0.72264,-1.74283 3.99575,-0.0425 6.29118,-0.97768 6.67375,-1.14771 0.80765,-0.34006 4.12327,-2.08289 4.12327,-5.14346 0,-1.87036 -1.70032,-3.14559 -3.69819,-3.14559 -2.38045,0 -4.33581,0.76514 -5.90861,2.25292 -2.93305,2.72051 -4.8034,6.37619 -4.8034,10.03188 z m 3.48566,-4.42083 c 0,-0.5526 0.97768,-3.27311 2.25292,-4.59086 1.1052,-1.14772 2.42295,-1.99788 3.48565,-1.99788 0.72264,0 2.25292,0.38258 2.25292,1.99788 0,2.678 -3.48565,5.44102 -7.60892,5.44102 -0.29756,0 -0.38257,-0.5526 -0.38257,-0.85016 z"/>
		<path d="m 739.86816,474.6865 c 0,3.1881 1.48777,5.65356 5.10095,5.65356 4.20829,0 6.3762,-4.76089 6.75877,-4.76089 0.59511,0 -0.38257,4.76089 2.59299,4.76089 2.76301,0 5.44102,-4.2933 5.44102,-5.18597 0,-0.17003 -0.12753,-0.38257 -0.46759,-0.38257 -0.68013,0 -1.65781,2.63549 -3.52816,2.63549 -0.97769,0 -1.10521,-0.89266 -1.10521,-1.82784 0,-1.27524 0.42508,-3.95324 0.89267,-7.18385 2.38044,-17.38575 2.80552,-18.74601 2.80552,-19.85122 0,-0.38257 -0.29755,-0.72263 -0.68013,-0.72263 -1.14771,0 -0.89266,0.085 -3.27311,0.68013 -1.19022,0.29755 -2.678,0.12752 -2.678,0.85015 0,0.29756 0.25505,0.46759 0.68013,0.46759 0.0425,0 1.02019,-0.0425 1.48778,-0.0425 0.63762,0 1.23273,0.42508 1.23273,1.0627 0,0.29756 -1.40277,11.47715 -1.53029,11.47715 -1.19022,0 -2.04038,-0.5526 -3.14559,-0.5526 -5.05845,0 -10.58448,6.33369 -10.58448,12.92242 z m 2.97555,-1.19022 c 0,-4.46334 3.48566,-10.83953 7.39639,-10.83953 1.14772,0 2.84803,0.5526 2.84803,1.70032 0,1.70032 -0.63762,9.18172 -2.33793,11.30712 -1.10521,1.40276 -2.76302,2.21041 -4.29331,2.21041 -2.59299,0 -3.61318,-1.91286 -3.61318,-4.37832 z"/>
		<path d="m 771.07033,476.98193 c 0,2.46547 2.678,3.57067 5.18597,3.57067 6.58874,0 11.60468,-7.60892 11.60468,-13.39001 0,-2.76301 -1.48778,-5.39851 -4.67588,-5.39851 -4.88842,0 -6.88629,3.95324 -7.4814,3.95324 -0.085,0 -0.21254,-0.34006 -0.21254,-0.63762 0,-3.06057 2.72051,-15.72795 2.72051,-16.49309 0,-0.46759 -0.34007,-0.76514 -0.80765,-0.76514 -0.25505,0 -1.02019,0.25505 -2.67801,0.46759 -1.95536,0.25504 -3.14558,0.21254 -3.14558,1.06269 0,0.59512 0.34006,0.59512 0.80765,0.59512 0.63762,0 1.1052,-0.085 1.74282,-0.085 0.85016,0 1.0627,0.29756 1.0627,0.5101 0,1.02019 -0.25505,2.50797 -0.63762,4.33581 -0.63762,3.14559 -1.14771,7.26886 -1.91286,11.68969 -0.59511,3.44315 -1.57279,7.86397 -1.57279,10.58448 z m 2.80553,-0.51009 c 0,-0.42508 0.46758,-4.97343 1.70031,-8.33156 1.36026,-3.6982 4.12328,-4.12328 5.14347,-4.12328 2.33794,0 4.16578,1.95537 4.16578,4.33582 0,4.88841 -3.91073,11.00956 -7.73645,11.00956 -2.63549,0 -3.27311,-1.44527 -3.27311,-2.89054 z"/>
		<path d="m 789.50617,485.3135 c 0,1.95536 1.70032,2.50797 3.52816,2.50797 3.99575,0 6.71626,-4.84591 8.71414,-9.90436 2.50797,-6.33369 3.52816,-12.19979 3.52816,-14.11265 0,-1.31774 -0.72264,-2.25292 -1.65781,-2.25292 -1.02019,0 -1.44527,0.80765 -1.44527,1.5728 0,1.14771 1.0627,1.99787 1.0627,3.2306 0,2.84804 -0.93518,7.39639 -1.53029,7.39639 -0.46759,0 -4.50585,-12.07226 -8.62912,-12.07226 -2.59299,0 -3.44314,3.69819 -3.44314,5.48352 0,0.72264 0.17003,0.93518 0.42507,0.93518 1.27524,0 0.38258,-3.1881 2.84804,-3.1881 2.25292,0 6.9288,10.96706 6.9288,13.3475 0,1.61531 -2.80553,7.05633 -5.27099,7.05633 -1.95537,0 -1.99787,-1.40277 -3.69819,-1.40277 -0.72264,0 -1.36026,0.68013 -1.36026,1.40277 z"/>
	</g>
	<g aria-label="JAMES R. OSGOOD &amp; CO.">
		<path d="m 359.38669,501.40351 h -8.79532 v 25.45029 c 0,3.88304 -1.91813,5.4269 -4.44445,5.4269 -2.24561,0 -5.00584,-2.61988 -5.00584,-2.61988 l -2.80702,7.34503 c 0,0 3.50877,3.6959 9.02924,3.6959 7.7193,0 12.02339,-4.02339 12.02339,-11.60233 z"/>
		<path d="m 389.12353,501.40351 h -8.14035 L 365.40423,540 h 9.4503 l 2.8538,-7.7193 h 14.69006 l 2.8538,7.7193 h 9.45029 z m 0.2807,23.15789 h -8.70175 l 4.30409,-11.22807 h 0.0936 z"/>
		<path d="m 443.06871,540 h 8.79532 l -3.46199,-38.59649 h -9.35672 l -8.56141,22.269 -8.5614,-22.269 h -9.35672 L 409.1038,540 h 8.79532 l 1.82456,-22.87719 h 0.23392 l 7.90643,22.64327 h 5.23977 l 7.90643,-22.64327 h 0.23392 z"/>
		<path d="M 482.46929,501.40351 H 460.38742 V 540 h 22.08187 v -7.7193 h -13.28655 v -7.76608 h 12.72515 v -7.7193 h -12.72515 v -7.67251 h 13.28655 z"/>
		<path d="m 506.74781,500.70175 c -6.22222,0 -12.58479,4.5848 -12.58479,11.78948 0,4.02339 2.71345,7.62573 7.34502,9.91813 4.5848,2.29239 8.70176,3.55555 8.70176,6.36257 0,3.60234 -3.64912,3.78947 -5.56725,3.78947 -4.3041,0 -9.4503,-4.35087 -9.4503,-4.35087 l -4.39766,7.39181 c 0,0 5.47369,5.09941 14.50293,5.09941 7.53216,0 14.54971,-3.22807 14.54971,-12.44444 0,-5.05263 -4.72515,-8.70175 -9.02924,-10.52632 -4.39766,-1.87134 -8.04679,-3.4152 -8.04679,-5.56725 0,-2.10526 1.59065,-3.46199 4.5848,-3.46199 3.97661,0 7.81286,2.66667 7.81286,2.66667 l 3.55556,-7.01754 c 0,0 -4.95907,-3.64913 -11.97661,-3.64913 z"/>
		<path d="M 546.75073,501.40351 V 540 h 8.79532 V 524.74854 L 567.33553,540 h 11.18128 l -13.28655,-15.95322 c 4.72515,-1.49707 7.90644,-5.38011 7.90644,-11.18128 0,-7.57895 -5.4269,-11.46199 -12.5848,-11.46199 z m 8.79532,17.12281 v -10.10527 h 1.02924 c 3.32164,0 7.29825,0.23392 7.29825,5.05263 0,4.81872 -3.97661,5.05264 -7.29825,5.05264 z"/>
		<path d="m 590.61843,529.9883 c -2.94737,0 -5.33334,2.38597 -5.33334,5.38012 0,2.94737 2.38597,5.33333 5.33334,5.33333 2.99415,0 5.38011,-2.38596 5.38011,-5.33333 0,-2.99415 -2.38596,-5.38012 -5.38011,-5.38012 z"/>
		<path d="m 622.70248,520.67836 c 0,11.27486 8.04678,20.02339 19.46199,20.02339 11.08771,0 19.4152,-8.74853 19.4152,-20.02339 0,-11.27485 -8.70175,-19.97661 -19.4152,-19.97661 -10.61989,0 -19.46199,8.70176 -19.46199,19.97661 z m 9.49707,0 c 0,-5.75438 3.18129,-11.50877 9.96492,-11.50877 6.8304,0 9.91812,5.75439 9.91812,11.50877 0,5.75439 -2.90058,11.50877 -9.91812,11.50877 -7.20468,0 -9.96492,-5.75438 -9.96492,-11.50877 z"/>
		<path d="m 684.68276,500.70175 c -6.22222,0 -12.58479,4.5848 -12.58479,11.78948 0,4.02339 2.71345,7.62573 7.34503,9.91813 4.58479,2.29239 8.70175,3.55555 8.70175,6.36257 0,3.60234 -3.64912,3.78947 -5.56725,3.78947 -4.30409,0 -9.45029,-4.35087 -9.45029,-4.35087 l -4.39766,7.39181 c 0,0 5.47368,5.09941 14.50292,5.09941 7.53216,0 14.54971,-3.22807 14.54971,-12.44444 0,-5.05263 -4.72515,-8.70175 -9.02924,-10.52632 -4.39766,-1.87134 -8.04679,-3.4152 -8.04679,-5.56725 0,-2.10526 1.59065,-3.46199 4.5848,-3.46199 3.97661,0 7.81287,2.66667 7.81287,2.66667 l 3.55555,-7.01754 c 0,0 -4.95906,-3.64913 -11.97661,-3.64913 z"/>
		<path d="M 741.79386,518.38596 H 723.9693 v 6.78363 h 8.88889 c 0,4.72515 -4.16374,7.4386 -8.37427,7.4386 -5.4269,0 -9.82456,-5.33334 -9.82456,-11.88304 0,-6.69006 4.39766,-12.07018 9.82456,-12.07018 3.41521,0 6.36258,1.35673 8.60819,4.95906 l 5.75439,-6.31578 c -3.36842,-4.07018 -8.09357,-6.5965 -14.8772,-6.5965 -10.8538,0 -18.80701,8.93568 -18.80701,20.0234 0,11.04093 8.42105,19.9766 18.80701,19.9766 7.57895,0 15.7193,-4.16374 17.82456,-13.94152 z"/>
		<path d="m 748.90496,520.67836 c 0,11.27486 8.04678,20.02339 19.46199,20.02339 11.08772,0 19.4152,-8.74853 19.4152,-20.02339 0,-11.27485 -8.70175,-19.97661 -19.4152,-19.97661 -10.61988,0 -19.46199,8.70176 -19.46199,19.97661 z m 9.49708,0 c 0,-5.75438 3.18128,-11.50877 9.96491,-11.50877 6.83041,0 9.91813,5.75439 9.91813,11.50877 0,5.75439 -2.90059,11.50877 -9.91813,11.50877 -7.20468,0 -9.96491,-5.75438 -9.96491,-11.50877 z"/>
		<path d="m 794.93203,520.67836 c 0,11.27486 8.04678,20.02339 19.46199,20.02339 11.08772,0 19.4152,-8.74853 19.4152,-20.02339 0,-11.27485 -8.70175,-19.97661 -19.4152,-19.97661 -10.61988,0 -19.46199,8.70176 -19.46199,19.97661 z m 9.49708,0 c 0,-5.75438 3.18128,-11.50877 9.96491,-11.50877 6.83041,0 9.91813,5.75439 9.91813,11.50877 0,5.75439 -2.90059,11.50877 -9.91813,11.50877 -7.20468,0 -9.96491,-5.75438 -9.96491,-11.50877 z"/>
		<path d="M 842.69006,501.40351 V 540 h 11.18129 c 10.61988,0 19.46199,-8.04678 19.46199,-19.32164 0,-11.22807 -8.88889,-19.27485 -19.46199,-19.27485 z m 8.79532,30.73684 v -22.87719 h 1.35673 c 6.54971,0 10.99415,5.00585 10.99415,11.46199 -0.0468,6.45614 -4.49123,11.4152 -10.99415,11.4152 z"/>
		<path d="m 898.57162,529.84795 c 0,8.56141 7.7193,10.8538 13.4269,10.8538 5.94152,0 9.02924,-2.29239 12.39766,-4.67836 L 928.23244,540 h 11.08772 l -8.32749,-8.65497 c 2.8538,-2.2924 5.47369,-5.28655 5.47369,-5.28655 l -5.4269,-5.33333 c -3.97661,4.11695 -5.66082,4.86549 -5.66082,4.86549 l -5.1462,-5.33333 c 0,0 7.62573,-3.69591 7.62573,-9.49708 0,-4.81871 -3.74269,-10.05848 -11.46199,-10.05848 -8,0 -12.30409,4.07018 -12.30409,10.05848 0,3.04094 1.63742,5.75439 3.88304,8.56141 -4.53801,2.38596 -9.40351,5.7076 -9.40351,10.52631 z m 17.82456,-22.92397 c 2.8538,0 3.74269,1.77777 3.74269,3.83625 0,2.05848 -2.33918,3.64913 -4.30409,4.72515 0,0 -2.80702,-2.47953 -2.80702,-4.72515 0,-2.05848 0.98246,-3.83625 3.36842,-3.83625 z m 2.2924,23.25146 c 0,0 -2.61989,2.19883 -5.80117,2.19883 -2.05848,0 -4.35088,-0.98246 -4.35088,-3.22807 0,-3.55556 4.02339,-5.00585 4.02339,-5.00585 z"/>
		<path d="m 980.90715,532.04678 c -8.8421,0 -12.72514,-6.17544 -12.72514,-11.36842 0,-5.1462 3.88304,-11.32164 12.72514,-11.32164 4.49123,0 7.57895,2.38597 7.57895,2.38597 l 3.74269,-7.48538 c 0,0 -4.30409,-3.55556 -12.67836,-3.55556 -10.94737,0 -20.91228,8.98246 -20.91228,20.07018 0,11.04094 10.01169,19.92982 20.91228,19.92982 8.37427,0 12.67836,-3.55555 12.67836,-3.55555 l -3.74269,-7.48538 c 0,0 -3.08772,2.38596 -7.57895,2.38596 z"/>
		<path d="m 998.90865,520.67836 c 0,11.27486 8.04675,20.02339 19.46195,20.02339 11.0878,0 19.4152,-8.74853 19.4152,-20.02339 0,-11.27485 -8.7017,-19.97661 -19.4152,-19.97661 -10.6198,0 -19.46195,8.70176 -19.46195,19.97661 z m 9.49705,0 c 0,-5.75438 3.1813,-11.50877 9.9649,-11.50877 6.8305,0 9.9182,5.75439 9.9182,11.50877 0,5.75439 -2.9006,11.50877 -9.9182,11.50877 -7.2046,0 -9.9649,-5.75438 -9.9649,-11.50877 z"/>
		<path d="m 1052,529.9883 c -2.9473,0 -5.3333,2.38597 -5.3333,5.38012 0,2.94737 2.386,5.33333 5.3333,5.33333 2.9942,0 5.3801,-2.38596 5.3801,-5.33333 0,-2.99415 -2.3859,-5.38012 -5.3801,-5.38012 z"/>
	</g>
</svg>
